<?xml version="1.0" encoding="iso-8859-1"?>
<!-- Generator: Adobe Illustrator 18.0.0, SVG Export Plug-In . SVG Version: 6.00 Build 0)  -->
<!DOCTYPE svg PUBLIC "-//W3C//DTD SVG 1.1//EN" "http://www.w3.org/Graphics/SVG/1.1/DTD/svg11.dtd">
<svg version="1.1" id="Capa_1" xmlns="http://www.w3.org/2000/svg" xmlns:xlink="http://www.w3.org/1999/xlink" x="0px" y="0px"
	 viewBox="0 0 453.729 453.729" style="enable-background:new 0 0 453.729 453.729; fill: #FFF;" xml:space="preserve">
<path d="M446.364,390.365h-42.523v-24.989c6.755-2.538,12.937-6.503,18.035-11.628c27.848-27.996,38.289-67.459,27.928-105.564
	c-10.36-38.104-39.344-66.847-77.532-76.888l-58.134-15.282c-28.995-8.317-47.613-18.173-52.432-27.765
	c-6.664-13.253,0.957-23.165,3.452-25.887c5.007-5.464,11.953-7.906,16.892-5.941c2.565,1.02,5.474-0.231,6.494-2.797
	c1.021-2.566-0.231-5.473-2.797-6.494c-8.849-3.521-20.087-0.116-27.962,8.476c-7.394,8.068-12.593,22.061-5.014,37.134
	c1.555,3.095,3.943,6.104,7.149,9.022l-52.122-13.7c-1.115-0.325-24.077-7.148-50.709-23.078c2.66-10.584,0.589-19.192-5.702-22.866
	c-5.704-3.328-13.411-1.872-21.296,3.957c-1.059-0.87-2.104-1.75-3.136-2.634c2.632-10.138,0.788-18.191-5.096-21.782
	c-4.642-2.822-10.654-2.124-16.881,1.825C88.12,48.327,76.628,39.055,66.965,32.788c-7.673-4.983-14.295-8.047-20.221-9.381
	c-13.401-8.207-24.813-10.852-33.921-7.834C3.763,18.575,0.666,25.92,0.343,26.747c-0.504,1.292-0.45,2.734,0.15,3.984
	c0.601,1.25,1.692,2.194,3.016,2.608l11.788,3.685c-1.027,2.061-1.427,3.589-1.496,3.878c-0.59,2.451,0.748,4.961,3.106,5.852
	c0.194,0.073,19.72,7.604,51.52,33.78c5.133,4.221,10.417,8.812,15.73,13.641c-2.198,9.585-0.282,17.172,5.367,20.616
	c0.103,0.063,0.213,0.105,0.317,0.164v57.148c-6.963,5.184-11.482,13.475-11.482,22.803v0.572c0,20.939,2.281,41.926,6.78,62.377
	l8.673,39.421c4.344,19.747,6.547,40.011,6.547,60.229v32.86H41.442c-2.761,0-5,2.239-5,5v39c0,2.761,2.239,5,5,5h404.922
	c2.761,0,5-2.239,5-5v-39C451.364,392.603,449.125,390.365,446.364,390.365z M173.359,390.365v-10.206
	c0-36.236-6.676-71.727-19.842-105.485c-9.712-24.904-15.807-51.035-18.113-77.666c-0.097-1.115-0.186-2.414-0.269-3.824
	c-0.544-9.25-5.513-17.258-12.774-22.029v-29.03c2.634-0.131,5.451-0.915,8.37-2.355c51.944,52.101,134.937,136.672,141.386,143.908
	c35.631,39.991,66.477,66.756,91.685,79.555c2.275,1.152,4.634,2.107,7.038,2.894v24.239H173.359z M75.689,51.551
	c6.124,4.887,13.202,10.944,21.575,18.444c-2.459,2.63-4.754,5.662-6.774,8.977c-1.003,1.65-1.903,3.32-2.711,5
	c-3.501-3.126-6.975-6.124-10.4-8.991C79.219,67.394,77.874,58.886,75.689,51.551z M94.729,106.251
	c-0.663-0.404-1.228-1.62-1.403-3.542c1.09,1.041,2.337,2.245,3.746,3.617C96.029,106.573,95.209,106.545,94.729,106.251z
	 M108.982,104.001c-3.733-3.682-6.796-6.664-9.097-8.855c-1.339-1.28-2.768-2.626-4.303-4.056c0.922-2.321,2.082-4.67,3.45-6.92
	c1.701-2.793,3.618-5.313,5.652-7.468c3.326,3.033,6.692,6.139,9.897,9.105c2.582,2.393,5.29,4.759,8.074,7.079
	c-2.279,2.53-4.422,5.351-6.331,8.351c-1.35,2.13-2.547,4.289-3.59,6.461C111.426,106.405,110.165,105.162,108.982,104.001z
	 M122.959,131.981c-1.27,0.253-2.344,0.204-3.073-0.221c-1.047-0.613-1.769-2.274-1.907-4.753
	C119.594,128.618,121.254,130.276,122.959,131.981z M393.841,390.365h-13v-38.374c0-3.584,2.916-6.5,6.5-6.5s6.5,2.916,6.5,6.5
	V390.365z M315.445,166.696l54.285,14.27c34.688,9.12,61.015,35.229,70.425,69.84c9.411,34.613-0.073,70.459-25.369,95.889
	c-3.184,3.202-6.901,5.83-10.945,7.804v-2.508c0-9.098-7.402-16.5-16.5-16.5s-16.5,7.402-16.5,16.5v3.478
	c-0.849-0.359-1.691-0.738-2.516-1.156c-24.086-12.229-53.943-38.232-88.741-77.289c-6.795-7.624-91.433-93.872-144.461-147.012
	c-5.302-5.319-10.263-10.269-14.772-14.76c1.133-2.888,2.634-5.839,4.417-8.653c1.729-2.717,3.676-5.241,5.734-7.467
	c36.236,27.466,73.011,38.107,74.699,38.585L315.445,166.696z M146.348,90.752c1.484,0.867,2.313,3.967,1.693,8.534
	c-3.203-2.118-6.425-4.366-9.643-6.748C142.128,90.334,145.021,89.978,146.348,90.752z M116.658,70.196
	c0.845,0.516,1.528,2.334,1.452,5.255c-1.743-1.609-3.512-3.233-5.28-4.85C114.727,69.822,116.059,69.832,116.658,70.196z
	 M15.969,25.065c2.472-0.819,6.157-1.136,11.412,0.325c-1.921,0.888-3.692,1.986-5.305,3.275l-8.316-2.599
	C14.405,25.684,15.139,25.34,15.969,25.065z M26.88,37.752c2.889-2.995,6.91-4.71,11.939-5.094c1.524-0.112,3.104-0.015,4.825,0.297
	c0.102,0.025,0.205,0.047,0.309,0.066c2.836,0.566,5.974,1.716,9.475,3.469c4.712,2.36,8.401,6.356,10.366,11.246
	c2.391,5.948,4.566,13.325,4.482,19.839C47.544,51.244,32.64,43.079,25.377,39.581C25.792,38.987,26.289,38.366,26.88,37.752z
	 M99.841,115.931c1.614-0.427,3.272-1.101,4.955-2.018c1.339,1.321,2.738,2.704,4.202,4.155c-2.153,8.898-0.941,16.191,3.363,20.42
	v28.556c-1.809-0.362-3.677-0.553-5.588-0.553c-2.391,0-4.713,0.3-6.933,0.859V115.931z M103.579,295.127l-8.673-39.421
	c-4.344-19.747-6.547-40.011-6.547-60.229v-0.572c0-10.154,8.261-18.415,18.415-18.415c9.736,0,17.809,7.591,18.379,17.281
	c0.089,1.512,0.185,2.905,0.289,4.1c2.389,27.58,8.7,54.643,18.759,80.436c12.712,32.595,19.158,66.863,19.158,101.851v10.206h-53
	v-32.86C110.359,336.565,108.078,315.579,103.579,295.127z M441.364,429.365H46.442v-29h394.922V429.365z"/>
<g>
</g>
<g>
</g>
<g>
</g>
<g>
</g>
<g>
</g>
<g>
</g>
<g>
</g>
<g>
</g>
<g>
</g>
<g>
</g>
<g>
</g>
<g>
</g>
<g>
</g>
<g>
</g>
<g>
</g>
</svg>
